<svg width="325" height="219" viewBox="0 0 325 219" fill="none" xmlns="http://www.w3.org/2000/svg">
<g clip-path="url(#clip0_2108_53304)">
<path d="M146.17 0C65.7709 0 0.582031 65.9173 0.582031 147.215C0.582031 171.154 6.24317 193.704 16.2502 213.653H276.091C286.098 193.704 291.759 171.096 291.759 147.215C291.702 65.9173 226.57 0 146.17 0Z" fill="url(#paint0_linear_2108_53304)"/>
<path d="M48.2726 22.8976C54.3046 22.8976 59.1946 17.953 59.1946 11.8536C59.1946 5.7541 54.3046 0.809509 48.2726 0.809509C42.2405 0.809509 37.3506 5.7541 37.3506 11.8536C37.3506 17.953 42.2405 22.8976 48.2726 22.8976Z" fill="url(#paint1_linear_2108_53304)"/>
<path d="M309.028 181.909C312.565 181.909 315.432 179.009 315.432 175.433C315.432 171.856 312.565 168.956 309.028 168.956C305.49 168.956 302.623 171.856 302.623 175.433C302.623 179.009 305.49 181.909 309.028 181.909Z" fill="url(#paint2_linear_2108_53304)"/>
<path d="M262.71 31.1662C262.71 32.843 261.337 34.2307 259.679 34.2307C258.021 34.2307 256.648 32.843 256.648 31.1662C256.648 29.4893 258.021 28.1016 259.679 28.1016C261.337 28.1594 262.71 29.4893 262.71 31.1662Z" fill="url(#paint3_linear_2108_53304)"/>
<path d="M291.735 108.107C295.821 103.974 295.821 97.2747 291.735 93.1424C287.648 89.0101 281.022 89.0101 276.936 93.1424C272.849 97.2747 272.849 103.974 276.936 108.107C281.022 112.239 287.648 112.239 291.735 108.107Z" fill="white"/>
<path d="M19.4527 199.14C19.4527 203.881 15.6214 207.755 10.9324 207.755C6.24338 207.755 2.41211 203.881 2.41211 199.14C2.41211 194.398 6.24338 190.524 10.9324 190.524C15.6214 190.524 19.4527 194.398 19.4527 199.14Z" fill="white"/>
<path d="M26.3826 87.4333C33.8118 83.8227 36.9397 74.8058 33.3689 67.2936C29.7981 59.7814 20.8809 56.6186 13.4517 60.2292C6.02255 63.8399 2.89467 72.8568 6.46543 80.369C10.0362 87.8812 18.9534 91.044 26.3826 87.4333Z" fill="white"/>
<path d="M17.165 95.8114H72.6327" stroke="white" stroke-miterlimit="10" stroke-linecap="round"/>
<path d="M268.828 155.426H324.296" stroke="white" stroke-miterlimit="10" stroke-linecap="round"/>
<path d="M175.849 20.2378H231.316" stroke="white" stroke-miterlimit="10" stroke-linecap="round"/>
<path d="M24.1414 176.647H22.0256V174.507C22.0256 174.218 21.7969 173.929 21.4538 173.929C21.1679 173.929 20.8819 174.16 20.8819 174.507V176.647H18.7662C18.4803 176.647 18.1943 176.878 18.1943 177.225C18.1943 177.514 18.4231 177.803 18.7662 177.803H20.8819V179.943C20.8819 180.232 21.1107 180.521 21.4538 180.521C21.7397 180.521 22.0256 180.29 22.0256 179.943V177.803H24.1414C24.4273 177.803 24.7132 177.572 24.7132 177.225C24.7132 176.878 24.4273 176.647 24.1414 176.647Z" fill="white"/>
<path d="M272.888 87.7741H269.686V84.5361C269.686 84.0735 269.285 83.6687 268.828 83.6687C268.37 83.6687 267.97 84.0735 267.97 84.5361V87.7741H264.768C264.31 87.7741 263.91 88.1789 263.91 88.6414C263.91 89.104 264.31 89.5088 264.768 89.5088H267.97V92.7468C267.97 93.2094 268.37 93.6142 268.828 93.6142C269.285 93.6142 269.686 93.2094 269.686 92.7468V89.5088H272.888C273.345 89.5088 273.746 89.104 273.746 88.6414C273.746 88.121 273.403 87.7741 272.888 87.7741Z" fill="white"/>
<path d="M47.4148 68.0567H45.4706V66.0908C45.4706 65.8017 45.2419 65.5704 44.9559 65.5704C44.67 65.5704 44.4413 65.8017 44.4413 66.0908V68.0567H42.4971C42.2112 68.0567 41.9824 68.288 41.9824 68.5771C41.9824 68.8662 42.2112 69.0975 42.4971 69.0975H44.4413V71.0635C44.4413 71.3526 44.67 71.5839 44.9559 71.5839C45.2419 71.5839 45.4706 71.3526 45.4706 71.0635V69.0975H47.4148C47.7007 69.0975 47.9295 68.8662 47.9295 68.5771C47.9295 68.288 47.7007 68.0567 47.4148 68.0567Z" fill="white"/>
<path d="M294.389 198.619H292.274V196.48C292.274 196.191 292.045 195.902 291.702 195.902C291.416 195.902 291.13 196.133 291.13 196.48V198.619H289.014C288.728 198.619 288.442 198.851 288.442 199.197C288.442 199.487 288.671 199.776 289.014 199.776H291.13V201.915C291.13 202.204 291.359 202.493 291.702 202.493C291.988 202.493 292.274 202.262 292.274 201.915V199.776H294.389C294.675 199.776 294.961 199.544 294.961 199.197C294.961 198.851 294.733 198.619 294.389 198.619Z" fill="url(#paint4_linear_2108_53304)"/>
<path d="M280.265 133.28L276.548 126.746L272.831 133.28H275.347V144.209H277.749V133.28H280.265Z" fill="white"/>
<path d="M32.3181 191.912L28.6012 185.378L24.8271 191.912H27.4004V202.84H29.8021V191.912H32.3181Z" fill="white"/>
<path d="M132.332 18.0405L128.615 11.5066L124.898 18.0405H127.415V28.9689H129.816V18.0405H132.332Z" fill="white"/>
<path d="M44.9557 115.529L42.554 111.308L40.1523 115.529H41.7535V122.583H43.2974V115.529H44.9557Z" fill="white"/>
<path d="M21.4536 115.702C14.0769 115.702 8.12988 121.774 8.12988 129.175C8.12988 136.634 14.1341 142.647 21.4536 142.647C28.8302 142.647 34.7773 136.576 34.7773 129.175C34.7773 121.774 28.8302 115.702 21.4536 115.702ZM9.27355 132.297H12.9333C13.2192 134.032 13.6767 135.593 14.3057 136.981H11.5037C10.5316 135.651 9.73101 134.032 9.27355 132.297ZM33.6336 126.052H29.9739C29.688 124.318 29.2305 122.757 28.6015 121.369H31.4034C32.4327 122.757 33.2333 124.318 33.6336 126.052ZM29.2305 126.052H25.2848C25.1705 124.376 24.9989 122.757 24.713 121.369H27.8009C28.4299 122.757 28.9446 124.318 29.2305 126.052ZM29.4592 129.175C29.4592 129.984 29.402 130.794 29.3448 131.546H25.342C25.3992 130.736 25.3992 129.984 25.3992 129.175C25.3992 128.365 25.3992 127.614 25.342 126.804H29.3448C29.402 127.614 29.4592 128.365 29.4592 129.175ZM18.3657 131.546C18.3085 130.794 18.3085 129.984 18.3085 129.175C18.3085 128.365 18.3085 127.556 18.3657 126.804H24.5986C24.6558 127.556 24.6558 128.365 24.6558 129.175C24.6558 129.984 24.6558 130.794 24.5986 131.546H18.3657ZM24.5415 132.297C24.4271 134.09 24.1984 135.651 23.9124 136.981H18.9947C18.7088 135.651 18.48 134.032 18.3657 132.297H24.5415ZM13.4479 129.175C13.4479 128.365 13.5051 127.556 13.5623 126.804H17.5651C17.5079 127.614 17.5079 128.365 17.5079 129.175C17.5079 129.984 17.5079 130.736 17.5651 131.546H13.5623C13.5051 130.794 13.4479 129.984 13.4479 129.175ZM18.4229 126.052C18.5372 124.26 18.766 122.699 19.0519 121.369H23.9696C24.2555 122.699 24.4843 124.318 24.5986 126.052H18.4229ZM24.5415 120.617C24.1412 118.998 23.6837 117.61 23.0547 116.743C24.7702 117.263 26.257 118.651 27.3434 120.617H24.5415ZM23.7409 120.617H19.1662C19.7953 118.015 20.653 116.512 21.4536 116.512C22.2541 116.454 23.1119 118.015 23.7409 120.617ZM18.4229 120.617H15.6209C16.7645 118.651 18.2513 117.263 19.9096 116.743C19.2806 117.61 18.766 118.94 18.4229 120.617ZM18.2513 121.369C17.9654 122.814 17.7938 124.433 17.6795 126.052H13.7338C14.0198 124.318 14.5344 122.699 15.1634 121.369H18.2513ZM12.9333 126.052H9.27355C9.73101 124.318 10.4744 122.699 11.5609 121.369H14.3629C13.6767 122.757 13.2192 124.376 12.9333 126.052ZM12.8761 126.862C12.7617 127.614 12.7617 128.423 12.7617 129.233C12.7617 130.042 12.8189 130.794 12.8761 131.603H9.15918C9.04481 130.852 8.93045 130.042 8.93045 129.233C8.93045 128.423 8.98763 127.614 9.15918 126.862H12.8761ZM13.7338 132.297H17.6795C17.7938 133.974 17.9654 135.593 18.2513 136.981H15.1634C14.4772 135.651 14.0198 134.032 13.7338 132.297ZM18.4229 137.79C18.8231 139.409 19.2806 140.797 19.9096 141.664C18.1941 141.144 16.7074 139.756 15.6209 137.79H18.4229ZM19.1662 137.79H23.7409C23.1119 140.392 22.2541 141.896 21.4536 141.896C20.653 141.896 19.7953 140.392 19.1662 137.79ZM24.5415 137.79H27.3434C26.1998 139.756 24.713 141.144 23.0547 141.664C23.6265 140.797 24.1412 139.409 24.5415 137.79ZM24.713 137.039C24.9989 135.593 25.1705 133.974 25.2848 132.355H29.2305C28.9446 134.09 28.4299 135.709 27.8009 137.039H24.713ZM29.9739 132.297H33.6336C33.1761 134.032 32.4327 135.651 31.3463 136.981H28.6015C29.2305 135.593 29.688 134.032 29.9739 132.297ZM30.0882 131.546C30.2026 130.794 30.2026 129.984 30.2026 129.175C30.2026 128.365 30.1454 127.614 30.0882 126.804H33.8051C33.9195 127.556 34.0339 128.365 34.0339 129.175C34.0339 129.984 33.9767 130.794 33.8051 131.546H30.0882ZM30.7172 120.617H28.2012C27.4006 119.172 26.4285 117.957 25.342 117.09C27.4006 117.784 29.2877 118.998 30.7172 120.617ZM17.6223 117.09C16.4786 117.957 15.5065 119.114 14.7631 120.617H12.2471C13.6767 118.998 15.5065 117.784 17.6223 117.09ZM12.1899 137.79H14.706C15.5065 139.236 16.4786 140.45 17.5651 141.317C15.5065 140.624 13.6767 139.409 12.1899 137.79ZM25.2848 141.317C26.4285 140.45 27.4006 139.294 28.144 137.79H30.6601C29.2877 139.409 27.4006 140.624 25.2848 141.317Z" fill="white"/>
<path d="M213.017 51.1727V45.3904C213.017 44.8122 212.56 44.3496 211.988 44.3496H210.501C210.044 44.3496 209.7 44.0605 209.586 43.5979C209.071 41.3429 208.214 39.2035 207.013 37.3531C206.784 36.9484 206.841 36.4858 207.127 36.1389L208.156 35.0981C208.557 34.6933 208.557 34.0573 208.156 33.6525L204.096 29.5472C203.696 29.1424 203.067 29.1424 202.667 29.5472L201.638 30.588C201.352 30.8771 200.837 30.9349 200.437 30.7036C198.55 29.4893 196.491 28.622 194.261 28.1016C193.861 27.986 193.518 27.639 193.518 27.1764V25.6731C193.518 25.0948 193.06 24.6323 192.488 24.6323H186.77C186.198 24.6323 185.741 25.0948 185.741 25.6731V27.1764C185.741 27.639 185.455 27.986 184.997 28.1016C182.767 28.622 180.651 29.4893 178.822 30.7036C178.421 30.9349 177.964 30.8771 177.621 30.588L176.591 29.5472C176.191 29.1424 175.562 29.1424 175.162 29.5472L171.102 33.6525C170.702 34.0573 170.702 34.6933 171.102 35.0981L172.131 36.1389C172.417 36.428 172.474 36.9484 172.245 37.3531C171.045 39.2613 170.187 41.4007 169.672 43.5979C169.558 44.0027 169.215 44.3496 168.757 44.3496H167.271C166.699 44.3496 166.241 44.8122 166.241 45.3904V51.1727C166.241 51.7509 166.699 52.2135 167.271 52.2135H168.757C169.215 52.2135 169.558 52.5026 169.672 52.9651C170.187 55.2202 171.045 57.3596 172.245 59.2099C172.474 59.6147 172.417 60.0773 172.131 60.4242L171.102 61.465C170.702 61.8698 170.702 62.5058 171.102 62.9106L175.162 67.0159C175.562 67.4207 176.191 67.4207 176.591 67.0159L177.621 65.9751C177.907 65.686 178.421 65.6282 178.822 65.8595C180.709 67.0738 182.767 67.9411 184.997 68.4615C185.398 68.5771 185.741 68.9241 185.741 69.3867V70.89C185.741 71.4683 186.198 71.9308 186.77 71.9308H192.488C193.06 71.9308 193.518 71.4683 193.518 70.89V69.3867C193.518 68.9241 193.804 68.5771 194.261 68.4615C196.491 67.9411 198.55 67.0738 200.437 65.8595C200.837 65.6282 201.295 65.686 201.638 65.9751L202.667 67.0159C203.067 67.4207 203.696 67.4207 204.096 67.0159L208.156 62.9106C208.557 62.5058 208.557 61.8698 208.156 61.465L207.127 60.4242C206.841 60.1351 206.784 59.6147 207.013 59.2099C208.214 57.3018 209.071 55.2202 209.586 52.9651C209.7 52.5604 210.044 52.2135 210.501 52.2135H211.988C212.56 52.2135 213.017 51.7509 213.017 51.1727ZM189.686 61.8698C182.253 61.8698 176.248 55.7984 176.248 48.2815C176.248 40.7647 182.253 34.6933 189.686 34.6933C197.12 34.6933 203.124 40.7647 203.124 48.2815C203.124 55.7406 197.12 61.8698 189.686 61.8698Z" fill="#A1C5D8"/>
<path d="M172.531 30.588V26.9452C172.531 26.5982 172.245 26.3091 171.902 26.3091H170.987C170.701 26.3091 170.473 26.1356 170.415 25.8465C170.072 24.4588 169.558 23.1289 168.814 21.9146C168.643 21.6833 168.7 21.3942 168.871 21.1629L169.5 20.5269C169.729 20.2956 169.729 19.8908 169.5 19.6017L166.984 17.0576C166.756 16.8263 166.355 16.8263 166.069 17.0576L165.44 17.6936C165.269 17.8671 164.926 17.9249 164.697 17.7514C163.496 16.9997 162.238 16.4793 160.809 16.1324C160.523 16.0746 160.351 15.8433 160.351 15.5542V14.629C160.351 14.2821 160.065 13.993 159.722 13.993H156.12C155.776 13.993 155.491 14.2821 155.491 14.629V15.612C155.491 15.9011 155.319 16.1324 155.033 16.1902C153.661 16.5372 152.345 17.0576 151.145 17.8092C150.916 17.9827 150.63 17.9249 150.401 17.7514L149.772 17.1154C149.544 16.8841 149.143 16.8841 148.857 17.1154L146.341 19.6596C146.113 19.8908 146.113 20.2956 146.341 20.5847L146.97 21.2208C147.142 21.3942 147.199 21.7412 147.027 21.9724C146.284 23.1867 145.769 24.4588 145.426 25.9044C145.369 26.1935 145.14 26.3669 144.854 26.3669H143.94C143.596 26.3669 143.311 26.656 143.311 27.003V30.6458C143.311 30.9927 143.596 31.2818 143.94 31.2818H144.854C145.14 31.2818 145.369 31.4553 145.426 31.7444C145.769 33.1321 146.284 34.462 147.027 35.6763C147.199 35.9076 147.142 36.1967 146.97 36.428L146.341 37.064C146.113 37.2953 146.113 37.7001 146.341 37.9892L148.857 40.5334C149.086 40.7647 149.486 40.7647 149.772 40.5334L150.401 39.8973C150.573 39.7239 150.916 39.666 151.145 39.8395C152.345 40.5912 153.604 41.1116 155.033 41.4585C155.319 41.5163 155.491 41.7476 155.491 42.0368V42.7884C155.491 43.1354 155.776 43.4245 156.12 43.4245H159.722C160.065 43.4245 160.351 43.1354 160.351 42.7884V41.8633C160.351 41.5742 160.523 41.3429 160.809 41.2851C162.181 40.9381 163.496 40.4177 164.697 39.666C164.926 39.4926 165.212 39.5504 165.44 39.7239L166.069 40.3599C166.298 40.5912 166.698 40.5912 166.984 40.3599L169.5 37.8157C169.729 37.5844 169.729 37.1797 169.5 36.8906L168.871 36.2545C168.7 36.0811 168.643 35.7341 168.814 35.5028C169.558 34.2886 170.072 33.0165 170.415 31.5709C170.473 31.2818 170.701 31.1084 170.987 31.1084H171.902C172.245 31.224 172.531 30.9349 172.531 30.588ZM158.007 36.2545C153.889 36.2545 150.573 32.9008 150.573 28.7376C150.573 24.5744 153.889 21.2208 158.007 21.2208C162.124 21.2208 165.44 24.5744 165.44 28.7376C165.383 32.9008 162.067 36.2545 158.007 36.2545Z" fill="white"/>
<path d="M240.58 184.626H68.2295C61.6534 184.626 56.3926 179.249 56.3926 172.657V60.2508C56.3926 53.6012 61.7106 48.2816 68.2295 48.2816H240.58C247.156 48.2816 252.417 53.659 252.417 60.2508V172.599C252.417 179.249 247.156 184.626 240.58 184.626Z" fill="#2589BD"/>
<path d="M247.614 60.7711V161.902C247.614 163.753 246.127 165.256 244.297 165.256H64.5129C62.6831 165.256 61.1963 163.753 61.1963 161.902V60.7711C61.1963 56.3188 64.7416 52.7339 69.1448 52.7339H239.665C244.068 52.7339 247.614 56.3188 247.614 60.7711Z" fill="white"/>
<path d="M173.104 213.711H135.706L139.652 190.64L140.681 184.626H168.129L169.158 190.64L173.104 213.711Z" fill="url(#paint5_linear_2108_53304)"/>
<path d="M169.158 190.64H139.651L140.681 184.626H168.129L169.158 190.64Z" fill="url(#paint6_linear_2108_53304)"/>
<path d="M185.512 208.738H123.297V213.711H185.512V208.738Z" fill="#2589BD"/>
<path d="M205.983 135.651H102.825C99.2796 135.651 96.3633 132.702 96.3633 129.117V90.5496C96.3633 86.9646 99.2796 84.0157 102.825 84.0157H205.926C209.472 84.0157 212.388 86.9646 212.388 90.5496V129.117C212.445 132.702 209.529 135.651 205.983 135.651Z" stroke="url(#paint7_linear_2108_53304)" stroke-width="1.0981" stroke-miterlimit="10" stroke-linecap="round"/>
<path d="M138 113H148M154 119V103H160C161.061 103 162.078 103.421 162.828 104.172C163.579 104.922 164 105.939 164 107V109C164 110.061 163.579 111.078 162.828 111.828C162.078 112.579 161.061 113 160 113H154M170 103V119M148 119V108C148 106.674 147.473 105.402 146.536 104.464C145.598 103.527 144.326 103 143 103C141.674 103 140.402 103.527 139.464 104.464C138.527 105.402 138 106.674 138 108V119" stroke="#D64933" stroke-width="2" stroke-linecap="round" stroke-linejoin="round"/>
<path d="M64.741 213.422H38.837C37.0643 213.422 35.6348 211.976 35.6348 210.184V156.987C35.6348 155.195 37.0643 153.749 38.837 153.749H64.741C66.5137 153.749 67.9433 155.195 67.9433 156.987V210.184C67.9433 211.976 66.4565 213.422 64.741 213.422Z" fill="#2589BD"/>
<path d="M64.7406 205.558H38.7794C37.8645 205.558 37.1211 204.806 37.1211 203.881V159.185C37.1211 158.259 37.8645 157.508 38.7794 157.508H64.6834C65.5983 157.508 66.3417 158.259 66.3417 159.185V203.881C66.3989 204.806 65.6555 205.558 64.7406 205.558Z" fill="white"/>
<path d="M54.8486 209.606C54.8486 211.34 53.4762 212.728 51.7607 212.728C50.0452 212.728 48.6729 211.34 48.6729 209.606C48.6729 207.871 50.0452 206.483 51.7607 206.483C53.4762 206.483 54.8486 207.871 54.8486 209.606Z" fill="url(#paint8_linear_2108_53304)"/>
<path d="M54.4485 209.606C54.4485 211.109 53.2476 212.323 51.7609 212.323C50.2741 212.323 49.0732 211.109 49.0732 209.606C49.0732 208.102 50.2741 206.888 51.7609 206.888C53.2476 206.888 54.4485 208.102 54.4485 209.606Z" fill="white"/>
<path d="M55.7063 156.351H47.815C47.4719 156.351 47.2432 156.062 47.2432 155.773C47.2432 155.426 47.5291 155.195 47.815 155.195H55.7063C56.0494 155.195 56.2781 155.484 56.2781 155.773C56.3353 156.062 56.0494 156.351 55.7063 156.351Z" fill="url(#paint9_linear_2108_53304)"/>
<path d="M58.3937 155.773C58.3937 156.12 58.1077 156.351 57.8218 156.351C57.4787 156.351 57.25 156.062 57.25 155.773C57.25 155.426 57.5359 155.195 57.8218 155.195C58.1077 155.137 58.3937 155.426 58.3937 155.773Z" fill="url(#paint10_linear_2108_53304)"/>
<path d="M51.7602 190.871C56.8448 190.871 60.9667 186.703 60.9667 181.562C60.9667 176.42 56.8448 172.252 51.7602 172.252C46.6756 172.252 42.5537 176.42 42.5537 181.562C42.5537 186.703 46.6756 190.871 51.7602 190.871Z" fill="url(#paint11_linear_2108_53304)"/>
<path d="M51.7602 184.742C51.4743 184.742 51.1884 184.626 50.9597 184.395L42.5537 176.184C42.0963 175.722 42.0963 175.028 42.4965 174.565C42.954 174.103 43.6402 174.103 44.0977 174.507L51.4743 181.735L58.8509 169.535C59.194 169.014 59.8802 168.841 60.4521 169.13C60.9667 169.477 61.1383 170.171 60.8524 170.749L52.7323 184.164C52.5608 184.453 52.2177 184.684 51.8746 184.684C51.8746 184.742 51.8174 184.742 51.7602 184.742Z" fill="#D64933"/>
<path d="M265.226 188.038C265.054 188.038 264.825 188.038 264.654 188.038C264.654 178.555 257.048 170.922 247.728 170.922C240.065 170.922 233.603 176.069 231.488 183.123C230.744 182.892 230.001 182.776 229.143 182.776C225.769 182.776 222.91 185.031 221.995 188.153C221.538 188.096 221.08 188.096 220.623 188.096C213.704 188.096 208.1 193.762 208.1 200.759C208.1 207.755 213.704 213.422 220.623 213.422H265.226C272.145 213.422 277.749 207.755 277.749 200.759C277.749 193.762 272.145 188.038 265.226 188.038Z" fill="#A1C5D8"/>
<path d="M89.2876 33.4791V33.9791H89.7876H89.7889H89.7903H89.7916H89.7929H89.7943H89.7956H89.7969H89.7983H89.7996H89.8009H89.8023H89.8036H89.8049H89.8062H89.8075H89.8089H89.8102H89.8115H89.8128H89.8141H89.8154H89.8168H89.8181H89.8194H89.8207H89.822H89.8233H89.8246H89.8259H89.8272H89.8285H89.8298H89.8311H89.8324H89.8337H89.835H89.8363H89.8376H89.8389H89.8402H89.8415H89.8428H89.844H89.8453H89.8466H89.8479H89.8492H89.8505H89.8517H89.853H89.8543H89.8556H89.8568H89.8581H89.8594H89.8607H89.8619H89.8632H89.8645H89.8657H89.867H89.8683H89.8695H89.8708H89.8721H89.8733H89.8746H89.8758H89.8771H89.8783H89.8796H89.8809H89.8821H89.8834H89.8846H89.8859H89.8871H89.8883H89.8896H89.8908H89.8921H89.8933H89.8946H89.8958H89.897H89.8983H89.8995H89.9008H89.902H89.9032H89.9045H89.9057H89.9069H89.9081H89.9094H89.9106H89.9118H89.913H89.9143H89.9155H89.9167H89.9179H89.9192H89.9204H89.9216H89.9228H89.924H89.9252H89.9265H89.9277H89.9289H89.9301H89.9313H89.9325H89.9337H89.9349H89.9361H89.9373H89.9385H89.9397H89.9409H89.9421H89.9433H89.9445H89.9457H89.9469H89.9481H89.9493H89.9505H89.9517H89.9529H89.9541H89.9553H89.9565H89.9576H89.9588H89.96H89.9612H89.9624H89.9636H89.9647H89.9659H89.9671H89.9683H89.9695H89.9706H89.9718H89.973H89.9742H89.9753H89.9765H89.9777H89.9789H89.98H89.9812H89.9824H89.9835H89.9847H89.9859H89.987H89.9882H89.9893H89.9905H89.9917H89.9928H89.994H89.9951H89.9963H89.9975H89.9986H89.9998H90.0009H90.0021H90.0032H90.0044H90.0055H90.0067H90.0078H90.009H90.0101H90.0113H90.0124H90.0135H90.0147H90.0158H90.017H90.0181H90.0193H90.0204H90.0215H90.0227H90.0238H90.0249H90.0261H90.0272H90.0283H90.0295H90.0306H90.0317H90.0329H90.034H90.0351H90.0363H90.0374H90.0385H90.0396H90.0408H90.0419H90.043H90.0441H90.0452H90.0464H90.0475H90.0486H90.0497H90.0508H90.052H90.0531H90.0542H90.0553H90.0564H90.0575H90.0586H90.0598H90.0609H90.062H90.0631H90.0642H90.0653H90.0664H90.0675H90.0686H90.0697H90.0708H90.0719H90.073H90.0741H90.0752H90.0763H90.0774H90.0785H90.0796H90.0807H90.0818H90.0829H90.084H90.0851H90.0862H90.0873H90.0884H90.0895H90.0906H90.0917H90.0928H90.0939H90.095H90.096H90.0971H90.0982H90.0993H90.1004H90.1015H90.1026H90.1036H90.1047H90.1058H90.1069H90.108H90.1091H90.1101H90.1112H90.1123H90.1134H90.1144H90.1155H90.1166H90.1177H90.1188H90.1198H90.1209H90.122H90.123H90.1241H90.1252H90.1263H90.1273H90.1284H90.1295H90.1305H90.1316H90.1327H90.1337H90.1348H90.1359H90.1369H90.138H90.1391H90.1401H90.1412H90.1423H90.1433H90.1444H90.1455H90.1465H90.1476H90.1486H90.1497H90.1507H90.1518H90.1529H90.1539H90.155H90.156H90.1571H90.1581H90.1592H90.1603H90.1613H90.1624H90.1634H90.1645H90.1655H90.1666H90.1676H90.1687H90.1697H90.1708H90.1718H90.1729H90.1739H90.175H90.176H90.1771H90.1781H90.1791H90.1802H90.1812H90.1823H90.1833H90.1844H90.1854H90.1865H90.1875H90.1885H90.1896H90.1906H90.1917H90.1927H90.1937H90.1948H90.1958H90.1968H90.1979H90.1989H90.2H90.201H90.202H90.2031H90.2041H90.2051H90.2062H90.2072H90.2082H90.2093H90.2103H90.2113H90.2124H90.2134H90.2144H90.2155H90.2165H90.2175H90.2186H90.2196H90.2206H90.2216H90.2227H90.2237H90.2247H90.2258H90.2268H90.2278H90.2288H90.2299H90.2309H90.2319H90.2329H90.234H90.235H90.236H90.237H90.2381H90.2391H90.2401H90.2411H90.2422H90.2432H90.2442H90.2452H90.2462H90.2473H90.2483H90.2493H90.2503H90.2513H90.2524H90.2534H90.2544H90.2554H90.2564H90.2575H90.2585H90.2595H90.2605H90.2615H90.2626H90.2636H90.2646H90.2656H90.2666H90.2676H90.2686H90.2697H90.2707H90.2717H90.2727H90.2737H90.2747H90.2757H90.2768H90.2778H90.2788H90.2798H90.2808H90.2818H90.2828H90.2839H90.2849H90.2859H90.2869H90.2879H90.2889H90.2899H90.2909H90.2919H90.293H90.294H90.295H90.296H90.297H90.298H90.299H90.3H90.301H90.302H90.3031H90.3041H90.3051H90.3061H90.3071H90.3081H90.3091H90.3101H90.3111H90.3121H90.3131H90.3142H90.3152H90.3162H90.3172H90.3182H90.3192H90.3202H90.3212H90.3222H90.3232H90.3242H90.3252H90.3262H90.3272H90.3283H90.3293H90.3303H90.3313H90.3323H90.3333H90.3343H90.3353H90.3363H90.3373H90.3383H90.3393H90.3403H90.3413H90.3423H90.3433H90.3443H90.3453H90.3464H90.3474H90.3484H90.3494H90.3504H90.3514H90.3524H90.3534H90.3544H90.3554H90.3564H90.3574H90.3584H90.3594C97.05 33.9791 102.383 39.4699 102.383 46.1999C102.383 52.9255 96.9972 58.363 90.3594 58.363H45.7565C39.1187 58.363 33.7334 52.9255 33.7334 46.1999C33.7334 39.4743 39.1187 34.0369 45.7565 34.0369C46.2191 34.0369 46.6451 34.0375 47.0662 34.0907L47.4889 34.1442L47.6087 33.7353C48.4633 30.8189 51.1322 28.7172 54.2768 28.7172C55.0856 28.7172 55.7789 28.8257 56.4728 29.0416L56.9551 29.1917L57.1003 28.7078C59.1557 21.8548 65.4301 16.8637 72.8614 16.8637C81.902 16.8637 89.2876 24.2682 89.2876 33.4791Z" fill="white" stroke="#2589BD"/>
<path d="M90.3594 33.4791C90.1879 33.4791 90.0163 33.4791 89.7876 33.4791C89.7876 23.9962 82.1822 16.3637 72.8614 16.3637C65.1988 16.3637 58.7371 21.5099 56.6213 28.5642C55.8779 28.3329 55.1346 28.2172 54.2768 28.2172C50.903 28.2172 48.0439 30.4723 47.1289 33.5947C46.6715 33.5369 46.214 33.5369 45.7565 33.5369C38.8374 33.5369 33.2334 39.2035 33.2334 46.1999C33.2334 53.1964 38.8374 58.863 45.7565 58.863H90.3594C97.2786 58.863 102.883 53.1964 102.883 46.1999C102.883 39.2035 97.3358 33.4791 90.3594 33.4791Z" stroke="#D64933" stroke-width="2" stroke-miterlimit="10" stroke-linecap="round" stroke-linejoin="round"/>
<path d="M51.7607 149.875V149.008" stroke="url(#paint12_linear_2108_53304)" stroke-miterlimit="10" stroke-linecap="round"/>
<path d="M51.7607 147.215V118.651C51.7607 114.604 55.0202 111.308 59.023 111.308H94.6481" stroke="url(#paint13_linear_2108_53304)" stroke-miterlimit="10" stroke-linecap="round" stroke-dasharray="3.03 3.03"/>
<path d="M95.5059 111.308H96.3636" stroke="url(#paint14_linear_2108_53304)" stroke-miterlimit="10" stroke-linecap="round"/>
<path d="M96.3637 112.695C97.1848 112.695 97.8505 112.022 97.8505 111.192C97.8505 110.362 97.1848 109.689 96.3637 109.689C95.5426 109.689 94.877 110.362 94.877 111.192C94.877 112.022 95.5426 112.695 96.3637 112.695Z" fill="url(#paint15_linear_2108_53304)"/>
<path d="M51.7604 152.13C52.9921 152.13 53.9906 151.121 53.9906 149.875C53.9906 148.63 52.9921 147.62 51.7604 147.62C50.5287 147.62 49.5303 148.63 49.5303 149.875C49.5303 151.121 50.5287 152.13 51.7604 152.13Z" fill="url(#paint16_linear_2108_53304)"/>
<path d="M107.229 41.2272H108.086" stroke="url(#paint17_linear_2108_53304)" stroke-miterlimit="10" stroke-linecap="round"/>
<path d="M109.744 41.2272H135.248C139.251 41.2272 142.51 44.5231 142.51 48.5707V82.281" stroke="url(#paint18_linear_2108_53304)" stroke-miterlimit="10" stroke-linecap="round" stroke-dasharray="2.96 2.96"/>
<path d="M142.567 83.1483V84.0157" stroke="url(#paint19_linear_2108_53304)" stroke-miterlimit="10" stroke-linecap="round"/>
<path d="M142.568 85.5191C143.389 85.5191 144.055 84.846 144.055 84.0157C144.055 83.1854 143.389 82.5123 142.568 82.5123C141.747 82.5123 141.081 83.1854 141.081 84.0157C141.081 84.846 141.747 85.5191 142.568 85.5191Z" fill="url(#paint20_linear_2108_53304)"/>
<path d="M107.228 43.4823C108.46 43.4823 109.458 42.4727 109.458 41.2272C109.458 39.9818 108.46 38.9722 107.228 38.9722C105.997 38.9722 104.998 39.9818 104.998 41.2272C104.998 42.4727 105.997 43.4823 107.228 43.4823Z" fill="url(#paint21_linear_2108_53304)"/>
<path d="M110.202 135.651V136.518" stroke="url(#paint22_linear_2108_53304)" stroke-miterlimit="10" stroke-linecap="round"/>
<path d="M110.202 138.253V182.834" stroke="url(#paint23_linear_2108_53304)" stroke-miterlimit="10" stroke-linecap="round" stroke-dasharray="3.02 3.02"/>
<path d="M110.202 183.701V184.569" stroke="url(#paint24_linear_2108_53304)" stroke-miterlimit="10" stroke-linecap="round"/>
<path d="M110.316 186.824C111.548 186.824 112.546 185.814 112.546 184.568C112.546 183.323 111.548 182.313 110.316 182.313C109.084 182.313 108.086 183.323 108.086 184.568C108.086 185.814 109.084 186.824 110.316 186.824Z" fill="url(#paint25_linear_2108_53304)"/>
<path d="M110.202 137.154C109.401 137.154 108.715 136.46 108.715 135.651C108.715 134.841 109.401 134.148 110.202 134.148C111.002 134.148 111.688 134.841 111.688 135.651C111.688 136.46 111.002 137.154 110.202 137.154Z" fill="url(#paint26_linear_2108_53304)"/>
<path d="M212.444 98.6447H213.302" stroke="url(#paint27_linear_2108_53304)" stroke-miterlimit="10" stroke-linecap="round"/>
<path d="M214.96 98.6447H221.136C222.508 98.6447 223.595 99.7433 223.595 101.131V110.672" stroke="url(#paint28_linear_2108_53304)" stroke-miterlimit="10" stroke-linecap="round" stroke-dasharray="2.96 2.96"/>
<path d="M223.595 111.539V112.406" stroke="url(#paint29_linear_2108_53304)" stroke-miterlimit="10" stroke-linecap="round"/>
<path d="M223.595 114.661C224.827 114.661 225.826 113.652 225.826 112.406C225.826 111.161 224.827 110.151 223.595 110.151C222.364 110.151 221.365 111.161 221.365 112.406C221.365 113.652 222.364 114.661 223.595 114.661Z" fill="url(#paint30_linear_2108_53304)"/>
<path d="M212.445 100.148C213.266 100.148 213.932 99.475 213.932 98.6447C213.932 97.8144 213.266 97.1413 212.445 97.1413C211.624 97.1413 210.958 97.8144 210.958 98.6447C210.958 99.475 211.624 100.148 212.445 100.148Z" fill="url(#paint31_linear_2108_53304)"/>
<path d="M186.884 135.651V136.518" stroke="url(#paint32_linear_2108_53304)" stroke-miterlimit="10" stroke-linecap="round"/>
<path d="M186.884 138.253V194.63C186.884 198.272 189.8 201.221 193.403 201.221H203.009" stroke="url(#paint33_linear_2108_53304)" stroke-miterlimit="10" stroke-linecap="round" stroke-dasharray="3.04 3.04"/>
<path d="M203.867 201.221H204.725" stroke="url(#paint34_linear_2108_53304)" stroke-miterlimit="10" stroke-linecap="round"/>
<path d="M186.884 137.154C187.705 137.154 188.371 136.481 188.371 135.651C188.371 134.821 187.705 134.148 186.884 134.148C186.063 134.148 185.397 134.821 185.397 135.651C185.397 136.481 186.063 137.154 186.884 137.154Z" fill="url(#paint35_linear_2108_53304)"/>
<path d="M204.725 203.476C205.957 203.476 206.955 202.467 206.955 201.221C206.955 199.976 205.957 198.966 204.725 198.966C203.494 198.966 202.495 199.976 202.495 201.221C202.495 202.467 203.494 203.476 204.725 203.476Z" fill="url(#paint36_linear_2108_53304)"/>
<path d="M236.291 80.7198H207.985C205.641 80.7198 203.754 78.8117 203.754 76.4409V60.8289C203.754 58.4582 205.641 56.5501 207.985 56.5501H236.291C238.636 56.5501 240.523 58.4582 240.523 60.8289V76.4409C240.523 78.7538 238.636 80.7198 236.291 80.7198Z" stroke="url(#paint37_linear_2108_53304)" stroke-miterlimit="10" stroke-linecap="round" stroke-dasharray="5 5"/>
<path d="M219.765 78.4069C219.708 78.4069 219.594 78.4069 219.48 78.3491C219.079 78.2334 218.908 77.7709 219.022 77.3661L225.713 59.3256C225.827 58.9208 226.284 58.7473 226.685 58.863C227.085 58.9786 227.256 59.4412 227.142 59.846L220.452 77.8865C220.337 78.2334 220.051 78.4069 219.765 78.4069Z" fill="url(#paint38_linear_2108_53304)"/>
<path d="M217.078 75.2845C216.849 75.2845 216.62 75.2267 216.449 75.0532L211.531 70.0805C210.788 69.3288 210.788 68.1145 211.531 67.305L216.563 62.2167C216.906 61.8697 217.421 61.8697 217.764 62.2167C218.107 62.5636 218.107 63.084 217.764 63.4309L212.732 68.5193C212.675 68.5771 212.675 68.7506 212.732 68.8084L217.65 73.7811C217.993 74.1281 217.993 74.6485 217.65 74.9954C217.478 75.1689 217.249 75.2845 217.078 75.2845Z" fill="url(#paint39_linear_2108_53304)"/>
<path d="M229.029 75.2845C228.8 75.2845 228.571 75.2267 228.4 75.0532C228.057 74.7063 228.057 74.1859 228.4 73.839L233.432 68.7506C233.489 68.6928 233.489 68.5193 233.432 68.4615L228.514 63.4888C228.171 63.1418 228.171 62.6214 228.514 62.2745C228.857 61.9276 229.372 61.9276 229.715 62.2745L234.633 67.2472C235.376 67.9989 235.376 69.2132 234.633 70.0227L229.601 75.111C229.486 75.1689 229.258 75.2845 229.029 75.2845Z" fill="url(#paint40_linear_2108_53304)"/>
<path d="M227.541 213.422H234.632H235.661H238.978C238.978 213.422 239.95 211.282 238.578 208.68C238.578 208.68 237.605 209.432 234.803 208.912C234.803 208.912 233.603 209.952 232.802 210.299C231.944 210.762 227.198 211.687 227.541 213.422Z" fill="#283770"/>
<path d="M259.678 208.276C259.678 208.276 258.077 209.085 255.904 208.565C255.904 208.565 255.675 208.854 255.389 209.663C255.161 210.299 253.731 211.629 253.502 213.017C253.445 213.248 253.617 213.422 253.845 213.422H260.65C260.822 213.422 260.936 213.306 260.993 213.133C261.05 212.439 261.279 210.473 259.678 208.276Z" fill="#283770"/>
<path d="M234.746 208.969L234.632 204.922L238.806 205.038L238.52 208.738C238.52 208.68 237.663 209.721 234.746 208.969Z" fill="#FFA49A"/>
<path d="M255.904 208.565L255.504 204.864H259.564L259.735 208.218C259.678 208.276 258.592 209.316 255.904 208.565Z" fill="#FFA49A"/>
<path d="M258.821 176.011C258.249 169.13 257.849 160.919 257.906 159.127C258.249 153.402 256.82 145.076 254.59 142.416C254.59 142.416 244.068 142.879 239.264 143.168C235.948 143.341 235.776 142.474 235.776 142.243C235.662 143.052 233.66 156.062 232.345 176.647C232.288 177.225 232.288 178.786 232.288 179.075C232.402 181.33 232.746 185.956 233.146 191.16C233.603 196.364 234.289 207.004 234.289 207.004C235.033 207.119 237.206 207.35 238.979 207.235C238.979 207.235 239.779 198.677 240.294 194.687C241.094 188.5 240.808 178.035 240.694 176.416C240.694 176.416 244.011 164.273 245.269 159.647L246.298 159.936C251.444 183.759 255.047 206.425 255.047 206.425C256.877 206.888 258.993 206.714 259.965 206.367C259.965 206.367 261.337 190.119 258.821 176.011Z" fill="url(#paint41_linear_2108_53304)"/>
<path d="M234.918 111.192C234.918 111.192 233.545 112.695 231.944 120.155H237.262L234.918 111.192Z" fill="url(#paint42_linear_2108_53304)"/>
<path d="M235.49 143.052C235.604 144.498 240.351 145.134 243.438 145.134C246.927 145.134 252.817 143.63 254.589 142.474C255.047 142.185 254.246 139.641 254.189 135.42C254.132 129.811 254.761 123.046 255.047 122.236C256.248 118.709 257.334 115.702 256.877 112.869C256.362 111.944 255.733 111.134 255.161 110.556C253.446 108.648 248.985 106.855 248.699 106.74C248.699 106.74 245.955 106.798 244.182 106.74C242.581 106.682 242.295 106.624 241.151 106.74C239.321 107.665 236.233 109.284 234.975 111.192C233.889 112.869 233.889 115.297 234.804 121.369C235.09 123.393 235.662 131.546 235.776 137.501C235.776 140.797 235.433 142.416 235.49 143.052Z" fill="#2589BD"/>
<path d="M247.727 107.607C247.441 106.971 248.07 106.682 247.899 105.815C247.441 102.866 247.613 99.0494 247.613 99.0494L244.01 102.114L242.295 103.56C242.123 104.427 241.837 105.526 241.551 106.393C241.265 107.318 241.608 108.012 241.608 108.012L247.727 107.607Z" fill="#FFA49A"/>
<path d="M246.24 102.114C246.24 102.114 244.811 105.294 241.608 106.393C241.837 105.526 242.18 104.427 242.352 103.56L244.067 102.114H246.24Z" fill="#FF8189"/>
<path d="M238.52 95.6379C238.52 95.6379 237.834 102.808 240.179 104.138C241.437 104.832 244.124 104.6 245.897 102.924C246.64 102.23 247.098 101.189 247.498 100.206C248.07 98.5869 248.985 95.5801 248.413 93.672C247.67 91.1278 240.465 88.9884 238.806 93.8454C238.635 94.1924 238.577 95.1754 238.52 95.6379Z" fill="#FFA49A"/>
<path d="M237.491 92.8047C236.576 93.8455 237.434 94.7128 238.749 95.1754C239.264 95.3488 239.836 95.4645 240.579 95.5223C242.008 95.5801 243.896 95.3488 244.582 95.1175C244.353 96.1583 244.467 96.91 244.982 97.257C245.554 97.6617 247.327 97.6617 247.327 98.0087C247.441 99.512 247.498 100.726 247.555 102.577L247.841 102.403C247.898 101.767 251.158 94.5393 250.071 91.6482C249.499 90.087 247.727 90.7231 247.727 90.7231C246.412 87.3115 239.092 86.3864 236.919 88.6415C235.604 90.0292 236.805 91.8217 237.491 92.8047Z" fill="#1D2D4E"/>
<path d="M246.068 100.148C247.898 101.131 249.042 96.91 247.212 96.4474C246.011 96.1583 245.725 97.8352 245.725 97.8352C245.725 97.8352 245.153 99.6277 246.068 100.148Z" fill="#FFA49A"/>
<path d="M262.652 129.059C262.652 125.359 260.079 118.998 259.736 118.246C258.878 116.338 252.988 119.923 253.389 121.311C253.903 122.988 256.362 128.597 256.362 128.597C253.789 129.233 249.557 130.678 246.984 131.546C246.984 131.546 245.326 132.008 244.411 132.008C243.496 132.008 242.238 131.546 241.723 131.372C241.151 131.256 239.207 132.529 238.864 132.76C238.521 132.991 238.807 133.396 239.493 133.338C239.779 133.338 240.294 133.165 240.751 133.049C240.408 133.222 240.122 133.396 240.008 133.454C239.665 133.627 239.036 135.362 238.864 135.593C238.75 135.767 239.493 135.882 239.893 135.535C240.122 135.304 240.408 134.899 240.637 134.552C240.408 135.073 240.179 135.535 240.122 135.651C240.008 135.824 240.694 135.882 241.037 135.535C241.266 135.304 241.78 134.668 242.066 134.263C241.895 134.841 241.609 135.709 241.723 135.767C241.895 135.882 242.238 135.767 242.524 135.42C242.638 135.246 242.753 135.015 242.867 134.841C243.039 134.957 243.267 135.073 243.553 135.131C245.211 135.651 246.527 134.494 247.499 134.321C249.329 134.263 252.188 134.205 254.304 134.09C257.849 133.974 260.022 133.222 261.451 132.586C263.11 131.777 262.652 129.059 262.652 129.059Z" fill="#FFA49A"/>
<path d="M243.438 132.297C243.553 132.239 243.61 132.239 243.667 132.182C243.61 132.182 243.553 132.239 243.553 132.239C243.496 132.239 243.438 132.297 243.438 132.297Z" fill="#D99490"/>
<path d="M248.699 106.74C248.699 106.74 248.871 106.971 248.47 106.277C248.299 105.988 247.841 105.41 247.841 105.41C247.841 105.41 247.327 106.971 243.267 107.838L243.953 110.325C243.896 110.325 247.098 109.342 248.699 106.74Z" fill="white"/>
<path d="M241.723 105.872C241.723 105.872 241.552 106.393 242.238 107.087C242.638 107.491 243.267 107.838 243.267 107.838L242.123 109.92C242.123 109.92 241.151 108.937 241.151 106.74C241.151 106.74 241.209 106.566 241.38 106.335C241.437 106.219 241.723 105.872 241.723 105.872Z" fill="white"/>
<path d="M245.554 136.865H235.833V135.651L245.554 135.94C245.783 135.94 246.012 136.171 246.012 136.403C246.012 136.634 245.783 136.865 245.554 136.865Z" fill="white"/>
<path d="M239.607 136.345H217.934C217.134 136.345 216.448 135.767 216.276 134.957L213.017 117.61C212.902 116.974 213.36 116.396 213.989 116.396H234.46C235.261 116.396 235.947 116.974 236.119 117.784L239.607 136.345Z" fill="white"/>
<path d="M238.006 136.865H216.905C216.276 136.865 215.762 136.403 215.647 135.824L212.274 117.899C212.159 117.437 212.56 116.974 213.017 116.974H234.118C234.747 116.974 235.261 117.437 235.376 118.015L238.749 135.94C238.864 136.403 238.521 136.865 238.006 136.865Z" fill="url(#paint43_linear_2108_53304)"/>
<path d="M255.161 110.556C255.161 110.556 258.421 113.736 259.736 117.379C261.108 121.08 261.509 122.294 261.509 122.294C261.509 122.294 258.364 125.127 254.246 125.301C254.246 125.301 250.93 119.287 250.529 116.454C250.186 113.678 251.959 108.764 255.161 110.556Z" fill="url(#paint44_linear_2108_53304)"/>
<path d="M222.11 136.865H220.966C220.966 136.865 220.794 136.981 220.852 137.212C220.966 137.386 221.538 137.617 221.824 137.675C222.624 137.848 223.425 137.675 223.425 137.675L222.11 136.865Z" fill="#CE8684"/>
<path d="M227.084 136.518C226.741 136.46 226.226 136.345 226.226 136.345L225.54 135.593C225.54 135.593 225.482 135.362 225.197 134.784C224.853 134.09 224.224 134.032 224.339 134.61C224.339 134.726 224.396 134.841 224.396 134.957C224.339 134.784 224.224 134.61 224.11 134.437C223.653 133.685 223.024 133.627 223.138 134.205C223.138 134.321 223.195 134.437 223.195 134.552C223.138 134.494 223.138 134.437 223.081 134.379C222.623 133.569 221.994 133.511 222.052 134.148C222.109 134.437 222.166 134.899 222.28 135.304C222.223 135.246 222.223 135.188 222.166 135.131C221.823 134.552 221.308 134.494 221.423 134.957C221.48 135.42 221.651 136.403 221.823 136.576C221.823 136.576 221.88 136.634 221.937 136.634C221.937 136.634 222.623 137.328 222.852 137.501C223.195 137.733 223.595 137.79 223.595 137.79C223.595 137.79 224.053 138.079 224.396 138.079C224.682 138.079 225.025 137.964 225.025 137.964C225.025 137.964 225.197 138.079 225.597 138.079C225.94 138.137 226.455 137.906 226.455 137.906C226.455 137.906 227.312 137.906 227.541 137.79C228.056 137.443 228.284 136.923 228.284 136.923C228.284 136.923 227.427 136.576 227.084 136.518Z" fill="#FFA49A"/>
<path d="M81.4393 39.7817H52.7333C52.2186 39.7817 51.8184 39.3769 51.8184 38.8565C51.8184 38.3361 52.2186 37.9314 52.7333 37.9314H81.4393C81.9539 37.9314 82.3542 38.3361 82.3542 38.8565C82.3542 39.3191 81.9539 39.7817 81.4393 39.7817Z" fill="url(#paint45_linear_2108_53304)"/>
<path d="M71.8325 43.4823H52.7333C52.2186 43.4823 51.8184 43.0775 51.8184 42.5571C51.8184 42.0367 52.2186 41.632 52.7333 41.632H71.8897C72.4043 41.632 72.8046 42.0367 72.8046 42.5571C72.8046 43.0197 72.3471 43.4823 71.8325 43.4823Z" fill="url(#paint46_linear_2108_53304)"/>
<path d="M56.6785 47.1251H52.6757C52.161 47.1251 51.7607 46.7203 51.7607 46.1999C51.7607 45.6795 52.161 45.2748 52.6757 45.2748H56.6785C57.1931 45.2748 57.5934 45.6795 57.5934 46.1999C57.6506 46.7203 57.1931 47.1251 56.6785 47.1251Z" fill="url(#paint47_linear_2108_53304)"/>
<path d="M81.4386 47.1251H60.1093C59.5946 47.1251 59.1943 46.7203 59.1943 46.1999C59.1943 45.6795 59.5946 45.2748 60.1093 45.2748H81.4386C81.9532 45.2748 82.3535 45.6795 82.3535 46.1999C82.3535 46.7203 81.9532 47.1251 81.4386 47.1251Z" fill="url(#paint48_linear_2108_53304)"/>
<path d="M81.439 43.4823H75.0917C74.577 43.4823 74.1768 43.0775 74.1768 42.5571C74.1768 42.0367 74.577 41.632 75.0917 41.632H81.439C81.9537 41.632 82.354 42.0367 82.354 42.5571C82.354 43.0197 81.9537 43.4823 81.439 43.4823Z" fill="url(#paint49_linear_2108_53304)"/>
<path d="M152.116 170.209L157.262 173.215C158.177 173.736 158.177 175.124 157.262 175.644L152.116 178.651C151.201 179.171 150 178.535 150 177.436V171.423C150 170.324 151.144 169.63 152.116 170.209Z" fill="white"/>
<path d="M85.1562 92.3421H51.704C49.2451 92.3421 47.1865 90.3183 47.1865 87.7741V79.7368C47.1865 77.2505 49.1879 75.1689 51.704 75.1689H85.1562C87.615 75.1689 89.6736 77.1927 89.6736 79.7368V87.7741C89.6736 90.2605 87.615 92.3421 85.1562 92.3421Z" fill="white"/>
<path d="M53.6482 80.4307C54.3746 80.4307 54.9634 79.8353 54.9634 79.1008C54.9634 78.3663 54.3746 77.7709 53.6482 77.7709C52.9219 77.7709 52.333 78.3663 52.333 79.1008C52.333 79.8353 52.9219 80.4307 53.6482 80.4307Z" fill="url(#paint50_linear_2108_53304)"/>
<path d="M53.6482 85.0565C54.3746 85.0565 54.9634 84.4611 54.9634 83.7266C54.9634 82.9921 54.3746 82.3967 53.6482 82.3967C52.9219 82.3967 52.333 82.9921 52.333 83.7266C52.333 84.4611 52.9219 85.0565 53.6482 85.0565Z" fill="url(#paint51_linear_2108_53304)"/>
<path d="M53.6482 89.6823C54.3746 89.6823 54.9634 89.0868 54.9634 88.3523C54.9634 87.6179 54.3746 87.0224 53.6482 87.0224C52.9219 87.0224 52.333 87.6179 52.333 88.3523C52.333 89.0868 52.9219 89.6823 53.6482 89.6823Z" fill="url(#paint52_linear_2108_53304)"/>
<path d="M83.4406 79.3899H57.365C57.1935 79.3899 57.0791 79.2743 57.0791 79.1008C57.0791 78.9273 57.1935 78.8117 57.365 78.8117H83.4406C83.6121 78.8117 83.7265 78.9273 83.7265 79.1008C83.7265 79.2743 83.6121 79.3899 83.4406 79.3899Z" fill="url(#paint53_linear_2108_53304)"/>
<path d="M83.4406 84.0157H57.365C57.1935 84.0157 57.0791 83.9 57.0791 83.7266C57.0791 83.5531 57.1935 83.4375 57.365 83.4375H83.4406C83.6121 83.4375 83.7265 83.5531 83.7265 83.7266C83.7265 83.9 83.6121 84.0157 83.4406 84.0157Z" fill="url(#paint54_linear_2108_53304)"/>
<path d="M68.4014 88.6415H57.365C57.1935 88.6415 57.0791 88.5258 57.0791 88.3523C57.0791 88.1789 57.1935 88.0632 57.365 88.0632H68.4586C68.6301 88.0632 68.7445 88.1789 68.7445 88.3523C68.7445 88.5258 68.5729 88.6415 68.4014 88.6415Z" fill="url(#paint55_linear_2108_53304)"/>
<path d="M116.721 212.15H74.6914C73.8337 212.15 73.1475 211.456 73.1475 210.588V203.014C73.1475 202.146 73.8337 201.453 74.6914 201.453H116.721C117.579 201.453 118.265 202.146 118.265 203.014V210.588C118.322 211.456 117.579 212.15 116.721 212.15Z" fill="#A1C5D8"/>
<path d="M79.2661 209.779H76.4641C76.0638 209.779 75.7207 209.432 75.7207 209.027V204.575C75.7207 204.17 76.0638 203.823 76.4641 203.823H79.2661C79.6664 203.823 80.0094 204.17 80.0094 204.575V209.027C80.0094 209.432 79.6664 209.779 79.2661 209.779Z" fill="url(#paint56_linear_2108_53304)"/>
<path d="M84.6987 209.779H81.8967C81.4964 209.779 81.1533 209.432 81.1533 209.027V204.575C81.1533 204.17 81.4964 203.823 81.8967 203.823H84.6987C85.099 203.823 85.4421 204.17 85.4421 204.575V209.027C85.4421 209.432 85.099 209.779 84.6987 209.779Z" fill="url(#paint57_linear_2108_53304)"/>
<path d="M101.568 209.779H87.3293C86.929 209.779 86.5859 209.432 86.5859 209.027V204.575C86.5859 204.17 86.929 203.823 87.3293 203.823H101.568C101.968 203.823 102.311 204.17 102.311 204.575V209.027C102.311 209.432 101.968 209.779 101.568 209.779Z" fill="white"/>
<path d="M106.886 206.772C106.886 207.64 106.2 208.333 105.342 208.333C104.484 208.333 103.798 207.64 103.798 206.772C103.798 205.905 104.484 205.211 105.342 205.211C106.2 205.269 106.886 205.963 106.886 206.772Z" fill="url(#paint58_linear_2108_53304)"/>
<path d="M111.003 206.772C111.003 207.64 110.317 208.333 109.459 208.333C108.601 208.333 107.915 207.64 107.915 206.772C107.915 205.905 108.601 205.211 109.459 205.211C110.317 205.269 111.003 205.963 111.003 206.772Z" fill="white"/>
<path d="M115.177 207.466H112.375C112.089 207.466 111.86 207.235 111.86 206.946V206.599C111.86 206.31 112.089 206.078 112.375 206.078H115.177C115.463 206.078 115.692 206.31 115.692 206.599V206.946C115.692 207.235 115.463 207.466 115.177 207.466Z" fill="url(#paint59_linear_2108_53304)"/>
<path d="M81.6676 212.15H77.8936V213.422H81.6676V212.15Z" fill="url(#paint60_linear_2108_53304)"/>
<path d="M113.748 212.15H109.974V213.422H113.748V212.15Z" fill="url(#paint61_linear_2108_53304)"/>
<path d="M116.721 200.123H74.6914C73.8337 200.123 73.1475 199.429 73.1475 198.561V190.987C73.1475 190.119 73.8337 189.426 74.6914 189.426H116.721C117.579 189.426 118.265 190.119 118.265 190.987V198.561C118.322 199.429 117.579 200.123 116.721 200.123Z" fill="#2589BD" fill-opacity="0.75"/>
<path d="M79.2661 197.752H76.4641C76.0638 197.752 75.7207 197.405 75.7207 197V192.548C75.7207 192.143 76.0638 191.796 76.4641 191.796H79.2661C79.6664 191.796 80.0094 192.143 80.0094 192.548V197C80.0094 197.405 79.6664 197.752 79.2661 197.752Z" fill="url(#paint62_linear_2108_53304)"/>
<path d="M84.6987 197.752H81.8967C81.4964 197.752 81.1533 197.405 81.1533 197V192.548C81.1533 192.143 81.4964 191.796 81.8967 191.796H84.6987C85.099 191.796 85.4421 192.143 85.4421 192.548V197C85.4421 197.405 85.099 197.752 84.6987 197.752Z" fill="white"/>
<path d="M101.568 197.752H87.3293C86.929 197.752 86.5859 197.405 86.5859 197V192.548C86.5859 192.143 86.929 191.796 87.3293 191.796H101.568C101.968 191.796 102.311 192.143 102.311 192.548V197C102.311 197.405 101.968 197.752 101.568 197.752Z" fill="white"/>
<path d="M106.886 194.745C106.886 195.613 106.2 196.306 105.342 196.306C104.484 196.306 103.798 195.613 103.798 194.745C103.798 193.878 104.484 193.184 105.342 193.184C106.2 193.242 106.886 193.936 106.886 194.745Z" fill="url(#paint63_linear_2108_53304)"/>
<path d="M111.003 194.745C111.003 195.613 110.317 196.306 109.459 196.306C108.601 196.306 107.915 195.613 107.915 194.745C107.915 193.878 108.601 193.184 109.459 193.184C110.317 193.242 111.003 193.936 111.003 194.745Z" fill="url(#paint64_linear_2108_53304)"/>
<path d="M115.177 195.439H112.375C112.089 195.439 111.86 195.208 111.86 194.919V194.572C111.86 194.283 112.089 194.051 112.375 194.051H115.177C115.463 194.051 115.692 194.283 115.692 194.572V194.919C115.692 195.208 115.463 195.439 115.177 195.439Z" fill="white"/>
<path d="M81.6676 200.123H77.8936V201.395H81.6676V200.123Z" fill="url(#paint65_linear_2108_53304)"/>
<path d="M113.748 200.123H109.974V201.395H113.748V200.123Z" fill="url(#paint66_linear_2108_53304)"/>
<path d="M5.89941 213.711H302.966" stroke="#232230" stroke-miterlimit="10" stroke-linecap="round" stroke-linejoin="round"/>
</g>
<defs>
<linearGradient id="paint0_linear_2108_53304" x1="146.154" y1="-1.24457" x2="146.154" y2="219.267" gradientUnits="userSpaceOnUse">
<stop stop-color="#DFEDF2"/>
<stop offset="1" stop-color="#E8F8FF"/>
</linearGradient>
<linearGradient id="paint1_linear_2108_53304" x1="48.255" y1="-191.233" x2="48.255" y2="29.2787" gradientUnits="userSpaceOnUse">
<stop stop-color="#DFEDF2"/>
<stop offset="1" stop-color="#E8F8FF"/>
</linearGradient>
<linearGradient id="paint2_linear_2108_53304" x1="309.01" y1="135.921" x2="309.01" y2="356.432" gradientUnits="userSpaceOnUse">
<stop stop-color="#DFEDF2"/>
<stop offset="1" stop-color="#E8F8FF"/>
</linearGradient>
<linearGradient id="paint3_linear_2108_53304" x1="259.685" y1="12.6254" x2="259.685" y2="116.228" gradientUnits="userSpaceOnUse">
<stop stop-color="#DFEDF2"/>
<stop offset="1" stop-color="#E8F8FF"/>
</linearGradient>
<linearGradient id="paint4_linear_2108_53304" x1="288.684" y1="202.451" x2="297.219" y2="193.439" gradientUnits="userSpaceOnUse">
<stop stop-color="#DFEDF2"/>
<stop offset="1" stop-color="#E8F8FF"/>
</linearGradient>
<linearGradient id="paint5_linear_2108_53304" x1="154.407" y1="178.758" x2="154.407" y2="210.851" gradientUnits="userSpaceOnUse">
<stop stop-color="#CBE1F2"/>
<stop offset="1" stop-color="#AED2ED"/>
</linearGradient>
<linearGradient id="paint6_linear_2108_53304" x1="139.63" y1="187.64" x2="169.183" y2="187.64" gradientUnits="userSpaceOnUse">
<stop stop-color="#CBE1F2"/>
<stop offset="1" stop-color="#AED2ED"/>
</linearGradient>
<linearGradient id="paint7_linear_2108_53304" x1="96.0762" y1="109.83" x2="212.737" y2="109.83" gradientUnits="userSpaceOnUse">
<stop stop-color="#71D2F9"/>
<stop offset="1" stop-color="#51B9F8"/>
</linearGradient>
<linearGradient id="paint8_linear_2108_53304" x1="51.769" y1="212.793" x2="51.769" y2="205.991" gradientUnits="userSpaceOnUse">
<stop stop-color="#CBE1F2"/>
<stop offset="1" stop-color="#AED2ED"/>
</linearGradient>
<linearGradient id="paint9_linear_2108_53304" x1="51.7689" y1="209.624" x2="51.7689" y2="140.206" gradientUnits="userSpaceOnUse">
<stop stop-color="#DFEDF2"/>
<stop offset="1" stop-color="#E8F8FF"/>
</linearGradient>
<linearGradient id="paint10_linear_2108_53304" x1="57.8017" y1="209.624" x2="57.8017" y2="140.206" gradientUnits="userSpaceOnUse">
<stop stop-color="#DFEDF2"/>
<stop offset="1" stop-color="#E8F8FF"/>
</linearGradient>
<linearGradient id="paint11_linear_2108_53304" x1="51.7685" y1="194.543" x2="51.7685" y2="165.17" gradientUnits="userSpaceOnUse">
<stop stop-color="#DFEDF2"/>
<stop offset="1" stop-color="#E8F8FF"/>
</linearGradient>
<linearGradient id="paint12_linear_2108_53304" x1="-nan" y1="-nan" x2="-nan" y2="-nan" gradientUnits="userSpaceOnUse">
<stop stop-color="#71D2F9"/>
<stop offset="1" stop-color="#51B9F8"/>
</linearGradient>
<linearGradient id="paint13_linear_2108_53304" x1="51.4831" y1="129.276" x2="96.6764" y2="129.276" gradientUnits="userSpaceOnUse">
<stop stop-color="#71D2F9"/>
<stop offset="1" stop-color="#51B9F8"/>
</linearGradient>
<linearGradient id="paint14_linear_2108_53304" x1="-nan" y1="-nan" x2="-nan" y2="-nan" gradientUnits="userSpaceOnUse">
<stop stop-color="#71D2F9"/>
<stop offset="1" stop-color="#51B9F8"/>
</linearGradient>
<linearGradient id="paint15_linear_2108_53304" x1="94.9032" y1="111.202" x2="97.878" y2="111.202" gradientUnits="userSpaceOnUse">
<stop stop-color="#71D2F9"/>
<stop offset="1" stop-color="#51B9F8"/>
</linearGradient>
<linearGradient id="paint16_linear_2108_53304" x1="49.5529" y1="149.847" x2="53.9846" y2="149.847" gradientUnits="userSpaceOnUse">
<stop stop-color="#71D2F9"/>
<stop offset="1" stop-color="#51B9F8"/>
</linearGradient>
<linearGradient id="paint17_linear_2108_53304" x1="-nan" y1="-nan" x2="-nan" y2="-nan" gradientUnits="userSpaceOnUse">
<stop stop-color="#71D2F9"/>
<stop offset="1" stop-color="#51B9F8"/>
</linearGradient>
<linearGradient id="paint18_linear_2108_53304" x1="126.16" y1="40.9578" x2="126.16" y2="84.3053" gradientUnits="userSpaceOnUse">
<stop stop-color="#71D2F9"/>
<stop offset="1" stop-color="#51B9F8"/>
</linearGradient>
<linearGradient id="paint19_linear_2108_53304" x1="-nan" y1="-nan" x2="-nan" y2="-nan" gradientUnits="userSpaceOnUse">
<stop stop-color="#71D2F9"/>
<stop offset="1" stop-color="#51B9F8"/>
</linearGradient>
<linearGradient id="paint20_linear_2108_53304" x1="142.552" y1="82.5122" x2="142.552" y2="85.5203" gradientUnits="userSpaceOnUse">
<stop stop-color="#71D2F9"/>
<stop offset="1" stop-color="#51B9F8"/>
</linearGradient>
<linearGradient id="paint21_linear_2108_53304" x1="107.217" y1="39.0063" x2="107.217" y2="43.4875" gradientUnits="userSpaceOnUse">
<stop stop-color="#71D2F9"/>
<stop offset="1" stop-color="#51B9F8"/>
</linearGradient>
<linearGradient id="paint22_linear_2108_53304" x1="-nan" y1="-nan" x2="-nan" y2="-nan" gradientUnits="userSpaceOnUse">
<stop stop-color="#71D2F9"/>
<stop offset="1" stop-color="#51B9F8"/>
</linearGradient>
<linearGradient id="paint23_linear_2108_53304" x1="-nan" y1="-nan" x2="-nan" y2="-nan" gradientUnits="userSpaceOnUse">
<stop stop-color="#71D2F9"/>
<stop offset="1" stop-color="#51B9F8"/>
</linearGradient>
<linearGradient id="paint24_linear_2108_53304" x1="-nan" y1="-nan" x2="-nan" y2="-nan" gradientUnits="userSpaceOnUse">
<stop stop-color="#71D2F9"/>
<stop offset="1" stop-color="#51B9F8"/>
</linearGradient>
<linearGradient id="paint25_linear_2108_53304" x1="110.308" y1="182.351" x2="110.308" y2="186.832" gradientUnits="userSpaceOnUse">
<stop stop-color="#71D2F9"/>
<stop offset="1" stop-color="#51B9F8"/>
</linearGradient>
<linearGradient id="paint26_linear_2108_53304" x1="110.189" y1="134.141" x2="110.189" y2="137.149" gradientUnits="userSpaceOnUse">
<stop stop-color="#71D2F9"/>
<stop offset="1" stop-color="#51B9F8"/>
</linearGradient>
<linearGradient id="paint27_linear_2108_53304" x1="-nan" y1="-nan" x2="-nan" y2="-nan" gradientUnits="userSpaceOnUse">
<stop stop-color="#71D2F9"/>
<stop offset="1" stop-color="#51B9F8"/>
</linearGradient>
<linearGradient id="paint28_linear_2108_53304" x1="219.29" y1="98.3749" x2="219.29" y2="112.692" gradientUnits="userSpaceOnUse">
<stop stop-color="#71D2F9"/>
<stop offset="1" stop-color="#51B9F8"/>
</linearGradient>
<linearGradient id="paint29_linear_2108_53304" x1="-nan" y1="-nan" x2="-nan" y2="-nan" gradientUnits="userSpaceOnUse">
<stop stop-color="#71D2F9"/>
<stop offset="1" stop-color="#51B9F8"/>
</linearGradient>
<linearGradient id="paint30_linear_2108_53304" x1="223.609" y1="110.162" x2="223.609" y2="114.643" gradientUnits="userSpaceOnUse">
<stop stop-color="#71D2F9"/>
<stop offset="1" stop-color="#51B9F8"/>
</linearGradient>
<linearGradient id="paint31_linear_2108_53304" x1="212.423" y1="97.16" x2="212.423" y2="100.168" gradientUnits="userSpaceOnUse">
<stop stop-color="#71D2F9"/>
<stop offset="1" stop-color="#51B9F8"/>
</linearGradient>
<linearGradient id="paint32_linear_2108_53304" x1="-nan" y1="-nan" x2="-nan" y2="-nan" gradientUnits="userSpaceOnUse">
<stop stop-color="#71D2F9"/>
<stop offset="1" stop-color="#51B9F8"/>
</linearGradient>
<linearGradient id="paint33_linear_2108_53304" x1="194.94" y1="135.355" x2="194.94" y2="201.502" gradientUnits="userSpaceOnUse">
<stop stop-color="#71D2F9"/>
<stop offset="1" stop-color="#51B9F8"/>
</linearGradient>
<linearGradient id="paint34_linear_2108_53304" x1="-nan" y1="-nan" x2="-nan" y2="-nan" gradientUnits="userSpaceOnUse">
<stop stop-color="#71D2F9"/>
<stop offset="1" stop-color="#51B9F8"/>
</linearGradient>
<linearGradient id="paint35_linear_2108_53304" x1="186.869" y1="134.141" x2="186.869" y2="137.149" gradientUnits="userSpaceOnUse">
<stop stop-color="#71D2F9"/>
<stop offset="1" stop-color="#51B9F8"/>
</linearGradient>
<linearGradient id="paint36_linear_2108_53304" x1="204.738" y1="198.972" x2="204.738" y2="203.453" gradientUnits="userSpaceOnUse">
<stop stop-color="#71D2F9"/>
<stop offset="1" stop-color="#51B9F8"/>
</linearGradient>
<linearGradient id="paint37_linear_2108_53304" x1="203.469" y1="68.6065" x2="240.824" y2="68.6065" gradientUnits="userSpaceOnUse">
<stop stop-color="#71D2F9"/>
<stop offset="1" stop-color="#51B9F8"/>
</linearGradient>
<linearGradient id="paint38_linear_2108_53304" x1="223.104" y1="58.9666" x2="223.104" y2="76.2587" gradientUnits="userSpaceOnUse">
<stop stop-color="#71D2F9"/>
<stop offset="1" stop-color="#51B9F8"/>
</linearGradient>
<linearGradient id="paint39_linear_2108_53304" x1="214.479" y1="58.9667" x2="214.479" y2="76.2586" gradientUnits="userSpaceOnUse">
<stop stop-color="#71D2F9"/>
<stop offset="1" stop-color="#51B9F8"/>
</linearGradient>
<linearGradient id="paint40_linear_2108_53304" x1="231.728" y1="58.9667" x2="231.728" y2="76.2586" gradientUnits="userSpaceOnUse">
<stop stop-color="#71D2F9"/>
<stop offset="1" stop-color="#51B9F8"/>
</linearGradient>
<linearGradient id="paint41_linear_2108_53304" x1="246.349" y1="144.643" x2="246.349" y2="209.601" gradientUnits="userSpaceOnUse">
<stop stop-color="#283770"/>
<stop offset="1" stop-color="#141A5A"/>
</linearGradient>
<linearGradient id="paint42_linear_2108_53304" x1="234.589" y1="105.06" x2="234.589" y2="119.997" gradientUnits="userSpaceOnUse">
<stop stop-color="#49A5F7"/>
<stop offset="1" stop-color="#1C6CEB"/>
</linearGradient>
<linearGradient id="paint43_linear_2108_53304" x1="225.551" y1="112.182" x2="225.551" y2="141.145" gradientUnits="userSpaceOnUse">
<stop stop-color="#71D2F9"/>
<stop offset="1" stop-color="#51B9F8"/>
</linearGradient>
<linearGradient id="paint44_linear_2108_53304" x1="255.998" y1="105.035" x2="255.998" y2="142.439" gradientUnits="userSpaceOnUse">
<stop stop-color="#49A5F7"/>
<stop offset="1" stop-color="#1C6CEB"/>
</linearGradient>
<linearGradient id="paint45_linear_2108_53304" x1="48.0142" y1="31.9745" x2="92.0106" y2="47.4227" gradientUnits="userSpaceOnUse">
<stop stop-color="#71D2F9"/>
<stop offset="1" stop-color="#51B9F8"/>
</linearGradient>
<linearGradient id="paint46_linear_2108_53304" x1="46.3287" y1="36.7749" x2="90.3251" y2="52.2232" gradientUnits="userSpaceOnUse">
<stop stop-color="#71D2F9"/>
<stop offset="1" stop-color="#51B9F8"/>
</linearGradient>
<linearGradient id="paint47_linear_2108_53304" x1="44.3307" y1="42.4641" x2="88.3269" y2="57.9123" gradientUnits="userSpaceOnUse">
<stop stop-color="#71D2F9"/>
<stop offset="1" stop-color="#51B9F8"/>
</linearGradient>
<linearGradient id="paint48_linear_2108_53304" x1="46.1297" y1="37.34" x2="90.1261" y2="52.7881" gradientUnits="userSpaceOnUse">
<stop stop-color="#71D2F9"/>
<stop offset="1" stop-color="#51B9F8"/>
</linearGradient>
<linearGradient id="paint49_linear_2108_53304" x1="48.1172" y1="31.6808" x2="92.1135" y2="47.129" gradientUnits="userSpaceOnUse">
<stop stop-color="#71D2F9"/>
<stop offset="1" stop-color="#51B9F8"/>
</linearGradient>
<linearGradient id="paint50_linear_2108_53304" x1="53.6661" y1="91.0613" x2="53.6661" y2="77.8857" gradientUnits="userSpaceOnUse">
<stop stop-color="#CBE1F2"/>
<stop offset="1" stop-color="#AED2ED"/>
</linearGradient>
<linearGradient id="paint51_linear_2108_53304" x1="53.6661" y1="91.0613" x2="53.6661" y2="77.8857" gradientUnits="userSpaceOnUse">
<stop stop-color="#CBE1F2"/>
<stop offset="1" stop-color="#AED2ED"/>
</linearGradient>
<linearGradient id="paint52_linear_2108_53304" x1="53.6661" y1="91.0613" x2="53.6661" y2="77.8856" gradientUnits="userSpaceOnUse">
<stop stop-color="#CBE1F2"/>
<stop offset="1" stop-color="#AED2ED"/>
</linearGradient>
<linearGradient id="paint53_linear_2108_53304" x1="85.3956" y1="86.927" x2="60.5496" y2="74.2862" gradientUnits="userSpaceOnUse">
<stop stop-color="#CBE1F2"/>
<stop offset="1" stop-color="#AED2ED"/>
</linearGradient>
<linearGradient id="paint54_linear_2108_53304" x1="83.5436" y1="90.5673" x2="58.6975" y2="77.9264" gradientUnits="userSpaceOnUse">
<stop stop-color="#CBE1F2"/>
<stop offset="1" stop-color="#AED2ED"/>
</linearGradient>
<linearGradient id="paint55_linear_2108_53304" x1="80.1208" y1="97.295" x2="55.2748" y2="84.6542" gradientUnits="userSpaceOnUse">
<stop stop-color="#CBE1F2"/>
<stop offset="1" stop-color="#AED2ED"/>
</linearGradient>
<linearGradient id="paint56_linear_2108_53304" x1="77.8938" y1="203.622" x2="77.8938" y2="209.188" gradientUnits="userSpaceOnUse">
<stop stop-color="#71D2F9"/>
<stop offset="1" stop-color="#51B9F8"/>
</linearGradient>
<linearGradient id="paint57_linear_2108_53304" x1="83.3044" y1="203.622" x2="83.3044" y2="209.188" gradientUnits="userSpaceOnUse">
<stop stop-color="#71D2F9"/>
<stop offset="1" stop-color="#51B9F8"/>
</linearGradient>
<linearGradient id="paint58_linear_2108_53304" x1="116.583" y1="206.799" x2="77.0681" y2="206.799" gradientUnits="userSpaceOnUse">
<stop stop-color="#CBE1F2"/>
<stop offset="1" stop-color="#AED2ED"/>
</linearGradient>
<linearGradient id="paint59_linear_2108_53304" x1="116.583" y1="206.789" x2="77.0686" y2="206.789" gradientUnits="userSpaceOnUse">
<stop stop-color="#CBE1F2"/>
<stop offset="1" stop-color="#AED2ED"/>
</linearGradient>
<linearGradient id="paint60_linear_2108_53304" x1="82.618" y1="211.061" x2="78.0926" y2="213.791" gradientUnits="userSpaceOnUse">
<stop stop-color="#0B1B6A"/>
<stop offset="1" stop-color="#3949B2"/>
</linearGradient>
<linearGradient id="paint61_linear_2108_53304" x1="114.717" y1="211.061" x2="110.192" y2="213.791" gradientUnits="userSpaceOnUse">
<stop stop-color="#0B1B6A"/>
<stop offset="1" stop-color="#3949B2"/>
</linearGradient>
<linearGradient id="paint62_linear_2108_53304" x1="75.3622" y1="194.759" x2="88.7539" y2="194.759" gradientUnits="userSpaceOnUse">
<stop stop-color="#CBE1F2"/>
<stop offset="1" stop-color="#AED2ED"/>
</linearGradient>
<linearGradient id="paint63_linear_2108_53304" x1="105.342" y1="192.202" x2="105.342" y2="196.541" gradientUnits="userSpaceOnUse">
<stop stop-color="#71D2F9"/>
<stop offset="1" stop-color="#51B9F8"/>
</linearGradient>
<linearGradient id="paint64_linear_2108_53304" x1="109.482" y1="192.202" x2="109.482" y2="196.541" gradientUnits="userSpaceOnUse">
<stop stop-color="#71D2F9"/>
<stop offset="1" stop-color="#51B9F8"/>
</linearGradient>
<linearGradient id="paint65_linear_2108_53304" x1="82.618" y1="199.03" x2="78.0926" y2="201.761" gradientUnits="userSpaceOnUse">
<stop stop-color="#0B1B6A"/>
<stop offset="1" stop-color="#3949B2"/>
</linearGradient>
<linearGradient id="paint66_linear_2108_53304" x1="114.717" y1="199.03" x2="110.192" y2="201.761" gradientUnits="userSpaceOnUse">
<stop stop-color="#0B1B6A"/>
<stop offset="1" stop-color="#3949B2"/>
</linearGradient>
<clipPath id="clip0_2108_53304">
<rect width="324.296" height="219" fill="white"/>
</clipPath>
</defs>
</svg>
